<?xml version="1.0" encoding="iso-8859-1"?>
<!-- Generator: Adobe Illustrator 19.0.0, SVG Export Plug-In . SVG Version: 6.00 Build 0)  -->
<svg xmlns="http://www.w3.org/2000/svg" xmlns:xlink="http://www.w3.org/1999/xlink" version="1.1" id="Capa_1" x="0px" y="0px" viewBox="0 0 59.999 59.999" style="enable-background:new 0 0 59.999 59.999;" xml:space="preserve" width="512px" height="512px">
<g>
	<path d="M52,7.999c-14.591,0-21.137-7.528-21.232-7.642C30.578,0.131,30.296,0.001,30.001,0c-0.271,0.012-0.577,0.13-0.769,0.356   C29.168,0.434,22.627,7.999,8,7.999c-0.553,0-1,0.447-1,1v19.085c0,10.433,4.69,20.348,12.546,26.521   c3.167,2.489,6.589,4.29,10.17,5.353c0.093,0.027,0.188,0.041,0.284,0.041s0.191-0.014,0.284-0.041   c3.581-1.063,7.003-2.863,10.17-5.353C48.309,48.432,53,38.517,53,28.084V8.999C53,8.446,52.552,7.999,52,7.999z M51,28.084   c0,9.824-4.404,19.151-11.782,24.949c-2.883,2.266-5.982,3.921-9.218,4.921c-3.235-1-6.335-2.655-9.218-4.921   C13.404,47.235,9,37.908,9,28.084V9.988c12.242-0.272,18.865-5.497,21-7.546c2.135,2.049,8.758,7.273,21,7.546V28.084z" fill="#FFFFFF"/>
	<path d="M27,17.89v2.525c0,0.143-0.207,0.293-0.399,0.373c-0.353,0.147-0.78,0.128-0.95-0.041l-1.786-1.786   c-0.737-0.738-1.938-0.736-2.673,0l-2.275,2.276c-0.358,0.357-0.556,0.832-0.556,1.337c0,0.506,0.197,0.98,0.555,1.337l1.785,1.786   c0.123,0.123,0.171,0.231,0.182,0.205c-0.026,0.025-0.149,0.097-0.404,0.097H18c-1.16,0-2,1.428-2,2.391v2.609c0,1.047,0.953,2,2,2   h2.478c0.162,0,0.28,0.266,0.302,0.318c0.146,0.353,0.11,0.794-0.079,0.983l-1.785,1.786c-0.737,0.737-0.737,1.936,0,2.673   l2.276,2.277c0.737,0.737,1.938,0.735,2.673,0l1.786-1.786c0.078-0.078,0.342-0.083,0.645,0.043C26.716,39.468,27,39.8,27,39.999v2   c0,0.076-0.005,0.153-0.01,0.228c-0.021,0.369-0.055,0.928,0.358,1.366c0.175,0.186,0.489,0.406,0.994,0.406h3.219   c0.503,0,0.824-0.218,1.005-0.4c0.444-0.449,0.438-1.043,0.435-1.477L33,39.999c0-0.21,0.273-0.549,0.681-0.718   c0.242-0.1,0.489-0.114,0.573-0.03l1.786,1.786c0.736,0.738,1.938,0.736,2.674,0l2.276-2.277c0.357-0.357,0.554-0.832,0.554-1.336   c0-0.505-0.196-0.979-0.554-1.337l-1.786-1.786c-0.129-0.129-0.173-0.219-0.182-0.205c0.026-0.025,0.149-0.097,0.404-0.097H42   c1.16,0,2-1.428,2-2.391V28.39c0-0.963-0.84-2.391-2-2.391h-2.573c-0.267,0-0.388-0.084-0.392-0.05   c0.002-0.024,0.037-0.12,0.169-0.252l1.786-1.786c0.357-0.357,0.554-0.832,0.554-1.337c0-0.504-0.196-0.979-0.554-1.336   l-2.276-2.277c-0.736-0.738-1.938-0.738-2.674,0l-1.786,1.786c-0.167,0.167-0.542,0.188-0.869,0.053   C33.207,20.726,33,20.581,33,20.415V17.89c0-1.043-0.848-1.891-1.891-1.891H28.89C27.847,15.999,27,16.847,27,17.89z M29,17.999h2   v2.416c0,0.963,0.62,1.818,1.619,2.232c1.083,0.448,2.309,0.254,3.049-0.486l1.709-1.709l2.121,2.122l-1.708,1.709   c-0.71,0.71-0.938,1.606-0.609,2.397c0.337,0.813,1.197,1.318,2.246,1.318h2.381c0.086,0.111,0.182,0.303,0.192,0.391L42,31.592   c-0.012,0.101-0.107,0.296-0.193,0.407h-2.381c-1.049,0-1.909,0.505-2.246,1.318c-0.328,0.791-0.101,1.688,0.609,2.397l1.708,1.709   l-2.121,2.122l-1.709-1.709c-0.674-0.673-1.729-0.826-2.753-0.403C31.769,37.908,31,38.939,31,39.999v2h-2v-2   c0-1.047-0.779-2.072-1.939-2.554c-1.06-0.439-2.143-0.289-2.824,0.392l-1.708,1.708l-2.121-2.122l1.707-1.708   c0.771-0.77,0.978-2.041,0.514-3.162c-0.397-0.958-1.221-1.554-2.15-1.554l-2.413,0.01C18.041,30.996,18,30.958,18,30.999   l-0.001-2.593c0.012-0.101,0.107-0.296,0.193-0.407h2.285c1.05,0,1.91-0.505,2.247-1.318c0.328-0.792,0.1-1.688-0.61-2.397   l-1.707-1.708l2.121-2.122l1.708,1.708c0.748,0.75,2.008,0.941,3.13,0.475C28.374,22.219,29,21.367,29,20.415V17.999z" fill="#FFFFFF"/>
	<path d="M24.952,29.999c0,2.757,2.243,5,5,5s5-2.243,5-5s-2.243-5-5-5S24.952,27.242,24.952,29.999z M29.952,26.999   c1.654,0,3,1.346,3,3s-1.346,3-3,3s-3-1.346-3-3S28.297,26.999,29.952,26.999z" fill="#FFFFFF"/>
</g>
<g>
</g>
<g>
</g>
<g>
</g>
<g>
</g>
<g>
</g>
<g>
</g>
<g>
</g>
<g>
</g>
<g>
</g>
<g>
</g>
<g>
</g>
<g>
</g>
<g>
</g>
<g>
</g>
<g>
</g>
</svg>
